<?xml version="1.0" encoding="UTF-8" standalone="no"?>
<svg viewBox="0 0 455.99999 456"
     height="456"
     width="456"
     fill="#ffffff"
     version="1.1"
     id="svg19"
     xmlns="http://www.w3.org/2000/svg">
    <path d="m 208.95651,363.84214 c -32.82061,-3.62443 -50.06181,-15.02512 -54.38272,-35.96041 -1.03091,-4.99487 -1.12019,-8.81089 -1.12744,-48.18834 -0.005,-24.48259 0.21969,-42.76391 0.52447,-42.76391 0.2928,0 1.84581,0.93798 3.45113,2.08442 1.6053,1.14643 3.78591,2.49604 4.84576,2.99916 2.04523,0.97085 2.6752,2.47013 3.52011,8.3774 0.27943,1.95366 0.90377,3.40312 1.83936,4.27019 1.73242,1.60556 1.8139,3.80878 0.21596,5.84022 -0.66022,0.83933 -1.19776,1.88858 -1.19456,2.33167 0.008,1.02473 3.14782,4.97183 6.44627,8.10217 1.41953,1.34717 2.55083,2.9787 2.55083,3.67872 0,0.69184 0.25038,1.41264 0.5564,1.60178 0.30603,0.18913 0.88137,1.35294 1.27854,2.58625 1.43311,4.45009 6.58389,12.1456 8.12934,12.1456 0.41366,0 1.30832,0.70709 1.98814,1.57134 1.18946,1.51216 1.19691,1.63756 0.19786,3.32881 l -1.03815,1.75744 2.19968,1.92291 c 1.20983,1.05759 2.37148,2.52272 2.58146,3.25583 0.20997,0.7331 1.80505,2.79073 3.54463,4.57252 1.73958,1.78178 3.91467,4.52245 4.83355,6.09039 1.636,2.79163 1.66202,2.98319 1.25377,9.23197 -0.2293,3.50965 -0.66814,7.54006 -0.97519,8.95647 -0.71777,3.31106 -0.0901,4.45783 3.35198,6.12412 2.11226,1.02253 3.53643,1.26842 6.42207,1.1088 l 3.70789,-0.20509 1.67136,2.70088 c 0.91925,1.48549 2.32684,3.91627 3.12799,5.40176 1.46489,2.7162 3.70999,6.09673 8.88253,13.37474 1.53887,2.16525 2.64172,4.09304 2.4508,4.28397 -0.60214,0.60214 -13.35446,0.24636 -20.85382,-0.58178 z m 30.90715,-4.77891 c -2.95924,-6.08587 -2.93699,-7.12593 0.15795,-7.38264 2.98109,-0.24728 2.90551,-1.46076 -0.21982,-3.52901 -2.38468,-1.5781 -2.45402,-1.71573 -2.11407,-4.19592 0.28959,-2.11279 0.15359,-2.67022 -0.77238,-3.16578 -2.36769,-1.26715 -2.86172,-6.17456 -0.85496,-8.49261 0.45879,-0.52995 0.6718,-1.38663 0.47337,-1.90373 -0.19843,-0.51711 -0.0535,-1.51455 0.3223,-2.21654 0.58117,-1.08595 0.41054,-1.60776 -1.14386,-3.49803 -3.62015,-4.40235 -3.49637,-4.32235 -6.68859,-4.32235 -5.57838,0 -5.36263,0.56258 -5.36006,-13.97566 0.002,-11.71254 0.0993,-12.89226 1.21353,-14.71979 1.47119,-2.41302 4.16749,-3.61484 10.32357,-4.60154 2.5504,-0.40878 5.04872,-1.08484 5.5518,-1.50238 0.72889,-0.60492 0.91471,-2.26106 0.91471,-8.15267 0,-4.06643 0.23892,-7.54118 0.53094,-7.72166 0.77849,-0.48113 9.2409,9.64789 11.05982,13.23798 0.85757,1.69261 1.89004,4.39132 2.29439,5.99714 0.57537,2.28501 1.625,3.85978 4.82874,7.24459 2.25144,2.3787 4.09353,4.7347 4.09353,5.23554 0,1.7502 1.86944,6.39597 3.5876,8.9156 2.08841,3.06258 8.91946,9.79653 12.53618,12.35796 2.07076,1.46656 2.85645,1.72824 3.75122,1.24937 1.35133,-0.7232 1.43732,-1.63114 0.27631,-2.91703 -0.47055,-0.52115 -1.41849,-3.75828 -2.10654,-7.19362 -1.16564,-5.81984 -1.43006,-6.43747 -3.8749,-9.05121 -2.46757,-2.63802 -2.64914,-3.07047 -3.04782,-7.25833 -0.30108,-3.16276 -0.84345,-5.10165 -1.87172,-6.69104 -0.79628,-1.23082 -1.44608,-2.44623 -1.444,-2.70087 0.002,-0.25467 0.81704,-0.9258 1.81101,-1.49143 2.59685,-1.47776 2.77016,-2.5689 0.8026,-5.053 -3.23663,-4.08632 -6.41386,-9.52463 -7.12564,-12.19654 -0.83631,-3.13939 -2.12889,-4.24525 -3.56698,-3.05174 -0.75183,0.62396 -0.88469,1.40028 -0.58347,3.40895 0.21452,1.43056 0.21557,3.05569 0.002,3.6114 -0.32543,0.84804 -0.67848,0.68046 -2.19723,-1.04297 -4.10344,-4.6563 -8.2951,-11.95658 -6.86528,-11.95658 2.22783,0 15.95983,-2.6997 16.93007,-3.32843 1.71886,-1.11385 2.26567,-4.82074 1.78672,-12.11218 -0.64926,-9.88409 -2.90178,-12.76856 -9.97112,-12.76856 -3.14333,0 -3.63097,-0.15034 -3.63097,-1.11945 0,-0.6157 0.54017,-1.80618 1.20039,-2.6455 2.59692,-3.30144 1.37589,-6.60059 -5.38156,-14.54064 -2.73396,-3.21245 -3.402,-3.66558 -6.19385,-4.20136 -2.60705,-0.50033 -3.16247,-0.83423 -3.32765,-2.0005 -0.10905,-0.76997 0.26416,-1.91092 0.82935,-2.53545 0.95427,-1.05446 0.95772,-1.24222 0.0483,-2.63028 -1.33068,-2.03087 -1.26701,-2.16448 0.94796,-1.98941 2.84034,0.22449 2.94084,-1.55243 0.22832,-4.03698 -1.4913,-1.36596 -2.1557,-2.49279 -2.1557,-3.65603 0,-1.3071 -0.90201,-2.51257 -4.05131,-5.41427 -5.71622,-5.26679 -5.56824,-5.34644 9.93301,-5.34644 17.34815,0 23.15891,1.29623 27.97497,6.24047 1.98358,2.03636 2.22745,2.55223 1.57706,3.33591 -1.15933,1.3969 -2.01852,1.15327 -5.19757,-1.47374 -3.16572,-2.61601 -3.91189,-2.84528 -4.9986,-1.53587 -0.57153,0.68867 -0.44946,1.22788 0.5991,2.64612 1.23592,1.67168 1.25708,1.86661 0.34423,3.1699 -2.40549,3.43432 -0.721,8.06138 5.65239,15.52629 5.2685,6.17081 5.67248,6.47245 8.9898,6.71255 l 2.62097,0.1897 0.99652,3.96127 c 0.54808,2.1787 1.44164,4.85356 1.98569,5.94412 1.33522,2.67653 1.27203,2.96264 -0.81504,3.6902 -1.0725,0.37388 -1.94263,1.18046 -2.14552,1.98886 -0.55287,2.20283 0.85176,6.18356 2.92367,8.28565 2.65635,2.69506 4.95516,6.28457 5.85389,9.14063 0.4155,1.32044 1.594,3.48113 2.61889,4.80157 l 1.86344,2.40079 -0.004,33.61092 -0.004,33.61094 -1.41879,4.20136 c -4.56547,13.51945 -12.37124,21.52473 -27.46579,28.16783 -6.62907,2.91745 -14.50247,5.21936 -22.66078,6.62524 -8.79655,1.51587 -8.31644,1.6958 -11.17796,-4.18909 z m -11.69329,-75.16405 c -3.53752,-0.36056 -3.90888,-0.91954 -3.90888,-5.88377 0,-3.82591 0.19498,-4.61365 1.53666,-6.20814 1.95557,-2.32407 4.65137,-2.84381 9.11194,-1.75683 l 3.45599,0.8422 0.17205,5.84727 0.17204,5.84728 -2.10341,0.87886 c -2.05105,0.85698 -3.53204,0.93302 -8.43639,0.43313 z M 199.2169,254.78529 c -0.68532,-0.74275 -1.92045,-2.70088 -2.74474,-4.35141 -3.19557,-6.39877 -5.92639,-11.34761 -7.04982,-12.77582 -0.64491,-0.81985 -1.17503,-1.79185 -1.17805,-2.15997 -0.003,-0.36811 -0.66979,-2.01974 -1.48172,-3.67027 -0.81192,-1.65054 -1.48468,-3.33821 -1.495,-3.75038 -0.0103,-0.41218 -0.93149,-3.51818 -2.04703,-6.90225 -1.11553,-3.38406 -2.22708,-7.09814 -2.47008,-8.25352 -0.243,-1.15537 -0.65546,-2.37077 -0.91656,-2.70088 -0.26108,-0.33011 -0.66121,-1.95064 -0.88916,-3.60117 -0.43185,-3.12701 -3.57134,-10.05622 -6.00969,-13.26406 -1.31227,-1.72637 -1.34301,-1.93142 -0.42695,-2.84747 0.91605,-0.91606 0.81809,-1.16028 -1.36053,-3.39137 -1.70045,-1.74143 -2.84026,-2.40423 -4.13453,-2.40423 -1.35897,0 -2.42268,-0.68273 -4.44182,-2.85093 -2.85685,-3.06773 -4.5129,-5.77023 -3.90713,-6.376 0.2069,-0.2069 0.83828,-0.37619 1.40305,-0.37619 0.56478,0 1.32908,-0.36413 1.69843,-0.80919 0.85778,-1.03354 -0.20281,-1.95143 -4.94178,-4.27688 l -3.51691,-1.72576 0.3326,-16.85068 c 0.18295,-9.26787 0.5133,-17.72845 0.73411,-18.8013 0.45149,-2.19355 1.40403,-2.47635 2.87311,-0.85303 1.25855,1.39067 1.266,3.00802 0.0202,4.38458 -1.45111,1.60348 -0.62824,2.92054 1.82473,2.92054 1.36553,0 2.29323,0.36372 2.67705,1.04955 0.32304,0.57726 1.88946,1.75412 3.48094,2.61526 2.21818,1.20024 2.89359,1.90164 2.89359,3.00487 0,0.82512 1.21641,2.93381 2.85093,4.94221 2.95595,3.63209 3.26261,4.50327 2.25065,6.39414 -0.82459,1.54074 0.10666,3.73971 2.151,5.07922 1.71775,1.12549 3.40834,0.88954 7.30242,-1.01925 1.14587,-0.56169 1.75233,-0.37365 3.99938,1.24006 1.45678,1.04619 2.82152,1.90215 3.03276,1.90215 0.49714,0 8.21297,6.15446 9.10057,7.25899 0.37287,0.464 1.07218,2.46417 1.55401,4.44482 0.6786,2.78942 1.21964,3.76979 2.40025,4.34925 1.30924,0.64259 1.61694,1.36207 2.18181,5.10167 0.61268,4.05608 0.57067,4.47278 -0.61496,6.09825 -1.5157,2.07805 -0.93465,3.55451 1.51397,3.84698 1.76782,0.21116 1.86674,0.50456 0.9675,2.86973 -0.78104,2.0543 -0.23964,2.64938 3.49982,3.84666 2.4262,0.77681 2.80994,1.11539 2.72102,2.40078 -0.057,0.82304 0.176,2.40276 0.51763,3.5105 0.45684,1.4813 0.42461,2.38125 -0.12183,3.40229 -1.61621,3.01993 2.02024,12.56707 7.62864,20.0282 1.09026,1.45042 1.98192,2.80087 1.98146,3.00098 -4.6e-4,0.20011 -3.44408,0.36384 -7.65249,0.36384 -7.2923,0 -7.78538,0.0787 -10.49924,1.67388 -4.84664,2.84897 -5.18238,4.39179 -3.65196,16.78212 0.39146,3.16926 -0.13951,3.55988 -2.03968,1.50049 z m 53.25878,-22.04138 c -0.72342,-0.45736 -0.74906,-0.71222 -0.13353,-1.32775 0.82469,-0.8247 2.54848,-0.13098 2.99374,1.20478 0.28102,0.84308 -1.5937,0.92368 -2.86021,0.12297 z m -98.12152,-16.79146 c -0.99895,-1.93175 -1.16844,-3.03341 -0.46557,-3.0261 0.39299,0.004 1.32508,1.60144 2.36132,4.04664 0.66753,1.57514 -1.02451,0.66426 -1.89575,-1.02054 z m 85.90614,-52.09674 c -0.21314,-3.21854 -0.38892,-9.13839 -0.39063,-13.1552 -0.002,-4.01682 -0.17146,-7.74204 -0.37721,-8.27826 -0.20579,-0.53623 -1.4887,-1.56769 -2.85094,-2.29215 -3.52787,-1.87618 -12.75556,-1.92039 -16.2813,-0.078 -3.50036,1.82911 -3.8823,3.01295 -3.89242,12.06438 -0.006,4.87216 -0.25121,8.06696 -0.63902,8.30663 -0.34659,0.2142 -2.8449,-1.73047 -5.5518,-4.3215 -12.19627,-11.67418 -17.63612,-15.55159 -31.03013,-22.11765 -9.70698,-4.75859 -13.91562,-6.52207 -17.10556,-7.16745 -3.36517,-0.68083 -5.10167,-1.63782 -5.10167,-2.81154 0,-0.6284 0.97753,-3.09394 2.17228,-5.47898 1.60886,-3.21172 3.51583,-5.66379 7.3524,-9.45416 5.5607,-5.49374 10.66484,-8.58494 19.21834,-11.639153 4.05926,-1.44945 4.52376,-1.50342 5.48122,-0.63692 0.65268,0.59067 1.58338,0.81188 2.47467,0.58817 2.80127,-0.70307 13.10103,5.132963 25.34109,14.358723 5.25635,3.96188 7.13082,5.73412 11.4306,10.80718 1.6212,1.91277 5.40243,5.50225 8.40273,7.9766 4.88856,4.0316 9.95655,9.73643 9.95655,11.20767 0,0.30322 0.65054,1.40425 1.44567,2.4467 0.79512,1.04245 1.84874,2.82352 2.34138,3.95791 1.30457,3.00403 3.78935,5.35876 5.69031,5.39247 1.31244,0.0233 2.0316,0.67861 3.72694,3.39616 1.15536,1.85203 2.71991,4.11998 3.47676,5.0399 1.18709,1.44284 1.27031,1.84195 0.60588,2.90588 -0.61564,0.98578 -0.62079,1.47261 -0.0257,2.42557 0.40951,0.65574 0.74457,1.46599 0.74457,1.80058 -2e-5,0.39242 -4.65437,0.60835 -13.1138,0.60835 h -13.11376 z m 53.17246,4.41893 c -4.02148,-2.11462 -5.38428,-4.58079 -3.35237,-6.06656 1.6506,-1.20694 0.47485,-2.65561 -3.68685,-4.54262 -4.32515,-1.96112 -7.3434,-5.45755 -6.7314,-7.79783 0.22158,-0.8474 -0.0959,-1.58191 -0.97758,-2.26131 -0.71818,-0.55341 -3.33144,-3.12971 -5.80726,-5.72508 -6.19864,-6.498 -14.07822,-12.83646 -28.28474,-22.75272 -6.67897,-4.66197 -29.30996,-19.643753 -29.67322,-19.643753 -0.22014,0 -1.65183,-0.8921 -3.18153,-1.98245 -1.52971,-1.09033 -3.52404,-2.29995 -4.43184,-2.688 -0.90779,-0.38807 -1.65053,-0.949962 -1.65053,-1.248667 0,-1.672269 19.07395,-2.872997 31.69715,-1.995382 43.20237,3.003599 61.96424,16.239092 64.98691,45.844772 0.65373,6.40307 0.33534,30.57905 -0.41878,31.79927 -0.61097,0.98855 -5.94366,0.3982 -8.48796,-0.93967 z"
          style="stroke-width:1"/>
</svg>
