<?xml version="1.0" encoding="UTF-8" standalone="no"?>
<svg xmlns="http://www.w3.org/2000/svg" viewBox="0 0 256 256"
     height="256" width="256" fill="#ffffff" version="1.1">
    <path d="m 114.9715,220.93566 c -22.454047,-2.47963 -34.249517,-10.27935 -37.205647,-24.60212 -0.70529,-3.41721 -0.76637,-6.02792 -0.77133,-32.96779 -0.003,-16.74963 0.1503,-29.2567 0.35881,-29.2567 0.20032,0 1.2628,0.64172 2.36108,1.42605 1.09825,0.78432 2.59011,1.70765 3.3152,2.05186 1.39923,0.6642 1.83022,1.68992 2.40826,5.73135 0.19117,1.33658 0.61831,2.32822 1.25839,2.92143 1.18522,1.09843 1.24097,2.60575 0.14775,3.99555 -0.45169,0.57422 -0.81944,1.29206 -0.81726,1.5952 0.005,0.70106 2.15357,3.40145 4.41019,5.54306 0.97116,0.92166 1.74513,2.03786 1.74513,2.51677 0,0.47332 0.1713,0.96645 0.38066,1.09585 0.20937,0.12939 0.60298,0.92561 0.87471,1.76937 0.98045,3.04451 4.50433,8.30935 5.56164,8.30935 0.283,0 0.89508,0.48375 1.360187,1.07502 0.81376,1.03454 0.81886,1.12033 0.13536,2.27739 l -0.710247,1.20234 1.504897,1.31555 c 0.8277,0.72355 1.62244,1.72591 1.7661,2.22746 0.14365,0.50155 1.23491,1.90926 2.42503,3.12826 1.19013,1.219 2.6782,3.09401 3.30685,4.16671 1.11926,1.90988 1.13706,2.04094 0.85776,6.316 -0.15687,2.40111 -0.4571,5.1585 -0.66717,6.12753 -0.49106,2.26524 -0.0616,3.0498 2.29324,4.18978 1.44509,0.69956 2.41943,0.86778 4.39362,0.75858 l 2.53674,-0.14031 1.14345,1.84779 c 0.6289,1.01629 1.59189,2.67929 2.14,3.69558 1.00219,1.85828 2.53816,4.17105 6.07693,9.15026 1.05281,1.48134 1.80732,2.80023 1.6767,2.93086 -0.41195,0.41195 -9.13638,0.16854 -14.26703,-0.39803 z m 21.14496,-3.26946 c -2.02454,-4.16362 -2.00932,-4.87517 0.10806,-5.05079 2.0395,-0.16918 1.98779,-0.99938 -0.15038,-2.41436 -1.63147,-1.07965 -1.67891,-1.17381 -1.44633,-2.87061 0.19812,-1.44546 0.10507,-1.82682 -0.52842,-2.16586 -1.61985,-0.86691 -1.95783,-4.22429 -0.58492,-5.81017 0.31388,-0.36256 0.45961,-0.94865 0.32385,-1.30243 -0.13575,-0.35377 -0.0366,-1.03617 0.2205,-1.51643 0.39761,-0.74295 0.28087,-1.09994 -0.78256,-2.39316 -2.47671,-3.01184 -2.39203,-2.95711 -4.57597,-2.95711 -3.81641,0 -3.66881,0.38489 -3.66705,-9.56137 10e-4,-8.01307 0.0679,-8.82017 0.83023,-10.07047 1.00651,-1.65085 2.85116,-2.47307 7.06281,-3.14812 1.74485,-0.27966 3.45406,-0.74218 3.79824,-1.02784 0.49866,-0.41385 0.62579,-1.54689 0.62579,-5.57761 0,-2.78202 0.16346,-5.15925 0.36324,-5.28273 0.5326,-0.32916 6.32211,6.60055 7.56652,9.05669 0.5867,1.15799 1.29306,3.0043 1.56969,4.10291 0.39364,1.56328 1.11174,2.64065 3.30356,4.95635 1.54031,1.62738 2.80056,3.23922 2.80056,3.58187 0,1.19739 1.27897,4.37577 2.45444,6.09956 1.42878,2.09525 6.1022,6.70224 8.57656,8.45463 1.4167,1.00334 1.95423,1.18237 2.56638,0.85475 0.9245,-0.49477 0.98333,-1.11594 0.18903,-1.99567 -0.32192,-0.35654 -0.97045,-2.57121 -1.44117,-4.92148 -0.79747,-3.98161 -0.97837,-4.40416 -2.651,-6.19233 -1.68817,-1.80479 -1.81239,-2.10065 -2.08514,-4.96575 -0.20599,-2.16379 -0.57705,-3.49027 -1.28053,-4.57764 -0.54477,-0.84206 -0.98933,-1.67357 -0.98791,-1.84779 10e-4,-0.17423 0.55898,-0.63338 1.239,-1.02035 1.77662,-1.011 1.89519,-1.7575 0.54909,-3.45698 -2.21432,-2.79564 -4.38801,-6.51623 -4.87497,-8.3442 -0.57215,-2.1478 -1.45647,-2.90436 -2.44033,-2.08783 -0.51436,0.42688 -0.60525,0.95799 -0.39918,2.33221 0.14677,0.97871 0.14749,2.09054 10e-4,2.47072 -0.22264,0.58019 -0.46418,0.46554 -1.50322,-0.71354 -2.80735,-3.18558 -5.67505,-8.18003 -4.69684,-8.18003 1.52415,0 10.91883,-1.84698 11.58261,-2.27713 1.17595,-0.76203 1.55005,-3.29808 1.22238,-8.28648 -0.44419,-6.76214 -1.98524,-8.73554 -6.82169,-8.73554 -2.15049,0 -2.48411,-0.10285 -2.48411,-0.76587 0,-0.42122 0.36955,-1.23568 0.82124,-1.8099 1.77667,-2.25866 0.94131,-4.51576 -3.68177,-9.9479 -1.87042,-2.19778 -2.32746,-2.50779 -4.23748,-2.87434 -1.7836,-0.3423 -2.16359,-0.57073 -2.2766,-1.36863 -0.0746,-0.52677 0.18073,-1.30735 0.5674,-1.73461 0.65286,-0.72141 0.65522,-0.84986 0.033,-1.7995 -0.91038,-1.38941 -0.86682,-1.48081 0.64854,-1.36104 1.94321,0.15358 2.01196,-1.06209 0.15621,-2.76188 -1.02027,-0.93451 -1.47481,-1.70543 -1.47481,-2.50125 0,-0.89425 -0.61711,-1.71896 -2.77169,-3.70415 -3.91072,-3.603237 -3.80948,-3.657727 6.79562,-3.657727 11.86864,0 15.84404,0.88681 19.13892,4.269377 1.35706,1.39317 1.5239,1.74609 1.07894,2.28225 -0.79315,0.95568 -1.38096,0.789 -3.55589,-1.00826 -2.16581,-1.78973 -2.6763,-1.94658 -3.41976,-1.05075 -0.39101,0.47115 -0.3075,0.84004 0.40987,1.81033 0.84555,1.14367 0.86002,1.27703 0.2355,2.16867 -1.6457,2.34957 -0.49327,5.51515 3.86705,10.62222 3.60442,4.22173 3.8808,4.42809 6.15033,4.59236 l 1.79312,0.12978 0.68176,2.71008 c 0.37497,1.49055 0.98629,3.32054 1.3585,4.06664 0.91349,1.83113 0.87025,2.02687 -0.5576,2.52463 -0.73375,0.25579 -1.32904,0.80761 -1.46785,1.36067 -0.37824,1.50705 0.58273,4.23045 2.00021,5.66858 1.81733,1.84381 3.39005,4.29956 4.00491,6.25351 0.28426,0.90338 1.09053,2.3816 1.7917,3.28497 l 1.27486,1.64249 -0.003,22.99473 -0.003,22.99474 -0.97066,2.87434 c -3.12344,9.24926 -8.46371,14.72603 -18.79057,19.27087 -4.53524,1.99596 -9.92179,3.5708 -15.50325,4.53262 -6.01811,1.03708 -5.68965,1.16017 -7.64734,-2.86594 z m -7.9999,-51.42308 c -2.42017,-0.24668 -2.67424,-0.6291 -2.67424,-4.02535 0,-2.61748 0.1334,-3.1564 1.0513,-4.24727 1.33789,-1.59 3.18221,-1.94557 6.23389,-1.20192 l 2.36439,0.57618 0.11771,4.00038 0.1177,4.00039 -1.43904,0.60127 c -1.40321,0.58629 -2.41642,0.63832 -5.77171,0.29632 z M 108.3082,146.32501 c -0.46886,-0.50815 -1.31386,-1.84779 -1.8778,-2.977 -2.18623,-4.37768 -4.0545,-7.7634 -4.82309,-8.7405 -0.44121,-0.5609 -0.80389,-1.22589 -0.80596,-1.47774 -0.002,-0.25184 -0.45823,-1.38179 -1.013717,-2.51099 -0.55547,-1.12921 -1.01573,-2.28382 -1.02279,-2.5658 -0.007,-0.28199 -0.63728,-2.40695 -1.40047,-4.72214 -0.76318,-2.31519 -1.52364,-4.85616 -1.68989,-5.6466 -0.16625,-0.79044 -0.44843,-1.62195 -0.62706,-1.8478 -0.17862,-0.22584 -0.45236,-1.33451 -0.60831,-2.46372 -0.29545,-2.13932 -2.44332,-6.8799 -4.1115,-9.07453 -0.89778,-1.18109 -0.91881,-1.32137 -0.2921,-1.94808 0.62671,-0.62672 0.5597,-0.7938 -0.9308,-2.32019 -1.16335,-1.191387 -1.94314,-1.644837 -2.82861,-1.644837 -0.92973,0 -1.65747,-0.46709 -3.03885,-1.95045 -1.9545,-2.09877 -3.08748,-3.94767 -2.67304,-4.36211 0.14155,-0.14155 0.5735,-0.25736 0.95989,-0.25736 0.38639,0 0.90928,-0.24912 1.16197,-0.55361 0.58685,-0.70709 -0.13875,-1.33506 -3.38089,-2.926 l -2.40608,-1.18067 0.22755,-11.528303 c 0.12516,-6.340563 0.35117,-12.128823 0.50224,-12.862808 0.30888,-1.500705 0.96056,-1.694181 1.96562,-0.583596 0.86103,0.95142 0.86613,2.057921 0.0138,2.999687 -0.99277,1.097012 -0.42981,1.998072 1.24838,1.998072 0.93422,0 1.5689,0.248837 1.83149,0.718044 0.221,0.394929 1.29266,1.200072 2.38146,1.789216 1.51756,0.821138 1.97964,1.300997 1.97964,2.055766 0,0.564501 0.8322,2.00715 1.95045,3.381186 2.02229,2.484875 2.23209,3.080888 1.53977,4.374516 -0.56414,1.054089 0.073,2.558503 1.47159,3.47492 1.17519,0.77 2.3318,0.60858 4.99591,-0.69731 0.78394,-0.38428 1.19885,-0.255634 2.73616,0.84838 0.996647,0.71574 1.930327,1.30134 2.074847,1.30134 0.34012,0 5.61886,4.21054 6.22611,4.9662 0.25509,0.31744 0.73352,1.68585 1.06316,3.0409 0.46426,1.90837 0.83441,2.57908 1.64212,2.97552 0.89571,0.43962 1.10622,0.93185 1.49267,3.49028 0.41917,2.774937 0.39043,3.060027 -0.42072,4.172077 -1.03695,1.42169 -0.63943,2.4318 1.03578,2.63189 1.20944,0.14447 1.27712,0.34519 0.66191,1.96331 -0.53435,1.40544 -0.16395,1.81256 2.39438,2.63168 1.65987,0.53145 1.92241,0.76308 1.86157,1.64248 -0.039,0.56307 0.12041,1.64383 0.35414,2.40169 0.31254,1.01342 0.29049,1.62911 -0.0833,2.32765 -1.10573,2.06607 1.38213,8.5977 5.21909,13.70219 0.74589,0.9923 1.35592,1.9162 1.3556,2.0531 -3.1e-4,0.13691 -2.35624,0.24892 -5.23541,0.24892 -4.98898,0 -5.32632,0.0539 -7.18299,1.14518 -3.31581,1.94911 -3.5455,3.00462 -2.49847,11.4814 0.26781,2.16823 -0.0954,2.43547 -1.39544,1.02655 z m 36.43671,-15.07949 c -0.49493,-0.3129 -0.51247,-0.48726 -0.0914,-0.90838 0.5642,-0.56421 1.74352,-0.0896 2.04815,0.82425 0.19225,0.57679 -1.09033,0.63193 -1.9568,0.0841 z M 77.615593,119.75773 c -0.68342,-1.3216 -0.79938,-2.07529 -0.31851,-2.07029 0.26886,0.003 0.90654,1.09562 1.61548,2.76849 0.45669,1.07762 -0.70091,0.45445 -1.29697,-0.6982 z M 136.38782,84.116033 c -0.14582,-2.201952 -0.26608,-6.251985 -0.26724,-9.000064 -10e-4,-2.748086 -0.11731,-5.296675 -0.25807,-5.663527 -0.14079,-0.366859 -1.01849,-1.072527 -1.95046,-1.568162 -2.41357,-1.283578 -8.72664,-1.313824 -11.13876,-0.05336 -2.39475,1.251376 -2.65605,2.061293 -2.66298,8.25378 -0.004,3.333262 -0.17186,5.518968 -0.43718,5.682936 -0.23712,0.146544 -1.94632,-1.183891 -3.79823,-2.95653 -8.34402,-7.986828 -12.06566,-10.639537 -21.229107,-15.131672 -6.64098,-3.255563 -9.52029,-4.462039 -11.70267,-4.903572 -2.30227,-0.465786 -3.49028,-1.120506 -3.49028,-1.9235 0,-0.429916 0.66877,-2.116702 1.48615,-3.748415 1.10069,-2.19728 2.40534,-3.874851 5.0301,-6.468012 3.80433,-3.758513 7.2963,-5.873341 13.14813,-7.962864 2.777127,-0.991634 3.094907,-1.028557 3.749957,-0.435746 0.44652,0.404104 1.08326,0.555444 1.69303,0.402394 1.91647,-0.481002 8.96299,3.511689 17.33696,9.823443 3.59611,2.710499 4.87852,3.922967 7.82019,7.393674 1.10913,1.308611 3.69604,3.764335 5.74868,5.457148 3.34448,2.758197 6.81172,6.661126 6.81172,7.667667 0,0.207446 0.44506,0.96071 0.98905,1.673897 0.54397,0.713186 1.2648,1.931696 1.60184,2.707782 0.89251,2.055191 2.59246,3.666167 3.893,3.68923 0.89789,0.01594 1.3899,0.464267 2.54976,2.323464 0.79043,1.267057 1.86081,2.818659 2.37861,3.448019 0.81214,0.98711 0.86907,1.26016 0.41451,1.98804 -0.42119,0.67442 -0.42471,1.00748 -0.0176,1.65944 0.28017,0.44862 0.5094,1.00295 0.5094,1.23186 -2e-5,0.26847 -3.18426,0.4162 -8.97174,0.4162 h -8.97171 z m 36.37765,3.02318 c -2.75127,-1.4467 -3.68362,-3.13392 -2.2935,-4.1504 1.12925,-0.825723 0.32486,-1.816823 -2.52234,-3.107811 -2.95903,-1.34169 -5.02395,-3.733753 -4.60525,-5.334843 0.15159,-0.579744 -0.0656,-1.082255 -0.66881,-1.547063 -0.49134,-0.378613 -2.27918,-2.141175 -3.973,-3.916783 -4.24077,-4.445572 -9.63154,-8.781995 -19.35086,-15.566151 -4.56938,-3.189461 -20.05225,-13.439168 -20.30077,-13.439168 -0.15061,0 -1.13009,-0.610326 -2.17663,-1.356283 -1.04654,-0.745943 -2.41095,-1.573498 -3.03201,-1.83898 -0.62106,-0.265496 -1.12921,-0.649912 -1.12921,-0.854269 0,-1.144074 13.04934,-1.965545 21.68544,-1.36513 29.55667,2.054896 42.3925,11.109888 44.46044,31.364454 0.44725,4.380626 0.22942,20.920497 -0.2865,21.755297 -0.418,0.67631 -4.06633,0.27243 -5.807,-0.64287 z"/>
</svg>
